<svg aria-labelledby="chart-title-mermaid-1663620721648 chart-desc-mermaid-1663620721648" role="img" viewBox="-119.2734375 0 764.37109375 640" style="max-width: 764.371px; background-color: transparent;" height="640" xmlns:xlink="http://www.w3.org/1999/xlink" xmlns="http://www.w3.org/2000/svg" width="100%" id="mermaid-1663620721648"><title id="chart-title-mermaid-1663620721648"></title><desc id="chart-desc-mermaid-1663620721648"></desc><style>#mermaid-1663620721648 {font-family:"trebuchet ms",verdana,arial,sans-serif;font-size:16px;fill:#333;}#mermaid-1663620721648 .error-icon{fill:#552222;}#mermaid-1663620721648 .error-text{fill:#552222;stroke:#552222;}#mermaid-1663620721648 .edge-thickness-normal{stroke-width:2px;}#mermaid-1663620721648 .edge-thickness-thick{stroke-width:3.5px;}#mermaid-1663620721648 .edge-pattern-solid{stroke-dasharray:0;}#mermaid-1663620721648 .edge-pattern-dashed{stroke-dasharray:3;}#mermaid-1663620721648 .edge-pattern-dotted{stroke-dasharray:2;}#mermaid-1663620721648 .marker{fill:#333333;stroke:#333333;}#mermaid-1663620721648 .marker.cross{stroke:#333333;}#mermaid-1663620721648 svg{font-family:"trebuchet ms",verdana,arial,sans-serif;font-size:16px;}#mermaid-1663620721648 .entityBox{fill:#ECECFF;stroke:#9370DB;}#mermaid-1663620721648 .attributeBoxOdd{fill:#ffffff;stroke:#9370DB;}#mermaid-1663620721648 .attributeBoxEven{fill:#f2f2f2;stroke:#9370DB;}#mermaid-1663620721648 .relationshipLabelBox{fill:hsl(80, 100%, 96.2745098039%);opacity:0.7;background-color:hsl(80, 100%, 96.2745098039%);}#mermaid-1663620721648 .relationshipLabelBox rect{opacity:0.5;}#mermaid-1663620721648 .relationshipLine{stroke:#333333;}#mermaid-1663620721648 :root{--mermaid-font-family:"trebuchet ms",verdana,arial,sans-serif;}</style><g></g><defs><marker orient="auto" markerHeight="18" markerWidth="18" refY="9" refX="0" id="ONLY_ONE_START"><path d="M9,0 L9,18 M15,0 L15,18" fill="none" stroke="gray"></path></marker></defs><defs><marker orient="auto" markerHeight="18" markerWidth="18" refY="9" refX="18" id="ONLY_ONE_END"><path d="M3,0 L3,18 M9,0 L9,18" fill="none" stroke="gray"></path></marker></defs><defs><marker orient="auto" markerHeight="18" markerWidth="30" refY="9" refX="0" id="ZERO_OR_ONE_START"><circle r="6" cy="9" cx="21" fill="white" stroke="gray"></circle><path d="M9,0 L9,18" fill="none" stroke="gray"></path></marker></defs><defs><marker orient="auto" markerHeight="18" markerWidth="30" refY="9" refX="30" id="ZERO_OR_ONE_END"><circle r="6" cy="9" cx="9" fill="white" stroke="gray"></circle><path d="M21,0 L21,18" fill="none" stroke="gray"></path></marker></defs><defs><marker orient="auto" markerHeight="36" markerWidth="45" refY="18" refX="18" id="ONE_OR_MORE_START"><path d="M0,18 Q 18,0 36,18 Q 18,36 0,18 M42,9 L42,27" fill="none" stroke="gray"></path></marker></defs><defs><marker orient="auto" markerHeight="36" markerWidth="45" refY="18" refX="27" id="ONE_OR_MORE_END"><path d="M3,9 L3,27 M9,18 Q27,0 45,18 Q27,36 9,18" fill="none" stroke="gray"></path></marker></defs><defs><marker orient="auto" markerHeight="36" markerWidth="57" refY="18" refX="18" id="ZERO_OR_MORE_START"><circle r="6" cy="18" cx="48" fill="white" stroke="gray"></circle><path d="M0,18 Q18,0 36,18 Q18,36 0,18" fill="none" stroke="gray"></path></marker></defs><defs><marker orient="auto" markerHeight="36" markerWidth="57" refY="18" refX="39" id="ZERO_OR_MORE_END"><circle r="6" cy="18" cx="9" fill="white" stroke="gray"></circle><path d="M21,18 Q39,0 57,18 Q39,36 21,18" fill="none" stroke="gray"></path></marker></defs><path marker-start="url(#ONE_OR_MORE_START)" marker-end="url(#ONE_OR_MORE_END)" stroke-dasharray="8,8" fill="none" stroke="gray" d="M94.1171875,95L94.1171875,103.33333333333333C94.1171875,111.66666666666667,94.1171875,128.33333333333334,94.1171875,145C94.1171875,161.66666666666666,94.1171875,178.33333333333334,94.1171875,186.66666666666666L94.1171875,195" class="er relationshipLine"></path><path marker-start="url(#ONLY_ONE_START)" marker-end="url(#ZERO_OR_MORE_END)" fill="none" stroke="gray" d="M44.1171875,82.62675550769507L23.430989583333332,93.02229625641256C2.7447916666666665,103.41783700513004,-38.627604166666664,124.20891850256503,-59.313802083333336,149.18779258461583C-80,174.16666666666666,-80,203.33333333333334,-80,232.5C-80,261.6666666666667,-80,290.8333333333333,-59.313802083333336,315.81220741538414C-38.627604166666664,340.79108149743496,2.7447916666666665,361.58216299487,23.430989583333332,371.9777037435874L44.1171875,382.37324449230493" class="er relationshipLine"></path><path marker-start="url(#ONLY_ONE_START)" marker-end="url(#ZERO_OR_MORE_END)" fill="none" stroke="gray" d="M144.1171875,77.02103740370202L173.13671875,88.35086450308502C202.15625,99.68069160246802,260.1953125,122.34034580123402,289.21484375,142.00350623395033C318.234375,161.66666666666666,318.234375,178.33333333333334,318.234375,186.66666666666666L318.234375,195" class="er relationshipLine"></path><path marker-start="url(#ONLY_ONE_START)" marker-end="url(#ZERO_OR_MORE_END)" fill="none" stroke="gray" d="M94.1171875,270L94.1171875,278.3333333333333C94.1171875,286.6666666666667,94.1171875,303.3333333333333,94.1171875,320C94.1171875,336.6666666666667,94.1171875,353.3333333333333,94.1171875,361.6666666666667L94.1171875,370" class="er relationshipLine"></path><path marker-start="url(#ONLY_ONE_START)" marker-end="url(#ONE_OR_MORE_END)" fill="none" stroke="gray" d="M318.234375,270L318.234375,278.3333333333333C318.234375,286.6666666666667,318.234375,303.3333333333333,289.21484375,322.9964937660497C260.1953125,342.659654198766,202.15625,365.319308397532,173.13671875,376.649135496915L144.1171875,387.97896259629795" class="er relationshipLine"></path><path marker-start="url(#ONLY_ONE_START)" marker-end="url(#ONE_OR_MORE_END)" fill="none" stroke="gray" d="M94.1171875,445L94.1171875,453.3333333333333C94.1171875,461.6666666666667,94.1171875,478.3333333333333,123.03011067708333,497.8472536918352C151.94303385416666,517.361174050337,209.76888020833334,539.722348100674,238.68180338541666,550.9029351258425L267.5947265625,562.083522151011" class="er relationshipLine"></path><path marker-start="url(#ONLY_ONE_START)" marker-end="url(#ONE_OR_MORE_END)" fill="none" stroke="gray" d="M546.666015625,270L546.666015625,278.3333333333333C546.666015625,286.6666666666667,546.666015625,303.3333333333333,546.666015625,320C546.666015625,336.6666666666667,546.666015625,353.3333333333333,546.666015625,361.6666666666667L546.666015625,370" class="er relationshipLine"></path><path marker-start="url(#ONLY_ONE_START)" marker-end="url(#ZERO_OR_MORE_END)" fill="none" stroke="gray" d="M546.666015625,445L546.666015625,453.3333333333333C546.666015625,461.6666666666667,546.666015625,478.3333333333333,517.7530924479166,497.8472536918352C488.8401692708333,517.361174050337,431.0143229166667,539.722348100674,402.1013997395833,550.9029351258425L373.1884765625,562.083522151011" class="er relationshipLine"></path><g transform="translate(44.1171875,20 )" id="CUSTOMER"><rect height="75" width="100" y="0" x="0" stroke="gray" fill-opacity="100%" fill="honeydew" class="er entityBox"></rect><text transform="translate(50,37.5)" style="font-family: &quot;trebuchet ms&quot;, verdana, arial, sans-serif;; font-size: 12px" text-anchor="middle" dominant-baseline="middle" y="0" x="0" id="entity-CUSTOMER" class="er entityLabel">CUSTOMER</text></g><g transform="translate(20,195 )" id="DELIVERY-ADDRESS"><rect height="75" width="148.234375" y="0" x="0" stroke="gray" fill-opacity="100%" fill="honeydew" class="er entityBox"></rect><text transform="translate(74.1171875,37.5)" style="font-family: &quot;trebuchet ms&quot;, verdana, arial, sans-serif;; font-size: 12px" text-anchor="middle" dominant-baseline="middle" y="0" x="0" id="entity-DELIVERY-ADDRESS" class="er entityLabel">DELIVERY-ADDRESS</text></g><g transform="translate(44.1171875,370 )" id="ORDER"><rect height="75" width="100" y="0" x="0" stroke="gray" fill-opacity="100%" fill="honeydew" class="er entityBox"></rect><text transform="translate(50,37.5)" style="font-family: &quot;trebuchet ms&quot;, verdana, arial, sans-serif;; font-size: 12px" text-anchor="middle" dominant-baseline="middle" y="0" x="0" id="entity-ORDER" class="er entityLabel">ORDER</text></g><g transform="translate(268.234375,195 )" id="INVOICE"><rect height="75" width="100" y="0" x="0" stroke="gray" fill-opacity="100%" fill="honeydew" class="er entityBox"></rect><text transform="translate(50,37.5)" style="font-family: &quot;trebuchet ms&quot;, verdana, arial, sans-serif;; font-size: 12px" text-anchor="middle" dominant-baseline="middle" y="0" x="0" id="entity-INVOICE" class="er entityLabel">INVOICE</text></g><g transform="translate(267.5947265625,545 )" id="ORDER-ITEM"><rect height="75" width="105.59375" y="0" x="0" stroke="gray" fill-opacity="100%" fill="honeydew" class="er entityBox"></rect><text transform="translate(52.796875,37.5)" style="font-family: &quot;trebuchet ms&quot;, verdana, arial, sans-serif;; font-size: 12px" text-anchor="middle" dominant-baseline="middle" y="0" x="0" id="entity-ORDER-ITEM" class="er entityLabel">ORDER-ITEM</text></g><g transform="translate(468.234375,195 )" id="PRODUCT-CATEGORY"><rect height="75" width="156.86328125" y="0" x="0" stroke="gray" fill-opacity="100%" fill="honeydew" class="er entityBox"></rect><text transform="translate(78.431640625,37.5)" style="font-family: &quot;trebuchet ms&quot;, verdana, arial, sans-serif;; font-size: 12px" text-anchor="middle" dominant-baseline="middle" y="0" x="0" id="entity-PRODUCT-CATEGORY" class="er entityLabel">PRODUCT-CATEGORY</text></g><g transform="translate(496.666015625,370 )" id="PRODUCT"><rect height="75" width="100" y="0" x="0" stroke="gray" fill-opacity="100%" fill="honeydew" class="er entityBox"></rect><text transform="translate(50,37.5)" style="font-family: &quot;trebuchet ms&quot;, verdana, arial, sans-serif;; font-size: 12px" text-anchor="middle" dominant-baseline="middle" y="0" x="0" id="entity-PRODUCT" class="er entityLabel">PRODUCT</text></g><rect fill-opacity="85%" fill="white" height="14" width="21.21875" y="138" x="83.5078125" class="er relationshipLabelBox"></rect><text style="font-family: &quot;trebuchet ms&quot;, verdana, arial, sans-serif;; font-size: 12px" dominant-baseline="middle" text-anchor="middle" y="145" x="94.1171875" id="rel1" class="er relationshipLabel">has</text><rect fill-opacity="85%" fill="white" height="14" width="38.546875" y="225.5" x="-99.2734375" class="er relationshipLabelBox"></rect><text style="font-family: &quot;trebuchet ms&quot;, verdana, arial, sans-serif;; font-size: 12px" dominant-baseline="middle" text-anchor="middle" y="232.5" x="-80" id="rel2" class="er relationshipLabel">places</text><rect fill-opacity="85%" fill="white" height="14" width="52.736328125" y="112.39620208740234" x="221.0655975341797" class="er relationshipLabelBox"></rect><text style="font-family: &quot;trebuchet ms&quot;, verdana, arial, sans-serif;; font-size: 12px" dominant-baseline="middle" text-anchor="middle" y="119.39620208740234" x="247.4337615966797" id="rel3" class="er relationshipLabel">liable for</text><rect fill-opacity="85%" fill="white" height="14" width="50.109375" y="313" x="69.0625" class="er relationshipLabelBox"></rect><text style="font-family: &quot;trebuchet ms&quot;, verdana, arial, sans-serif;; font-size: 12px" dominant-baseline="middle" text-anchor="middle" y="320" x="94.1171875" id="rel4" class="er relationshipLabel">receives</text><rect fill-opacity="85%" fill="white" height="14" width="39.609375" y="338.60382080078125" x="227.6291046142578" class="er relationshipLabelBox"></rect><text style="font-family: &quot;trebuchet ms&quot;, verdana, arial, sans-serif;; font-size: 12px" dominant-baseline="middle" text-anchor="middle" y="345.60382080078125" x="247.4337921142578" id="rel5" class="er relationshipLabel">covers</text><rect fill-opacity="85%" fill="white" height="14" width="49.734375" y="513.210693359375" x="139.7283477783203" class="er relationshipLabelBox"></rect><text style="font-family: &quot;trebuchet ms&quot;, verdana, arial, sans-serif;; font-size: 12px" dominant-baseline="middle" text-anchor="middle" y="520.210693359375" x="164.5955352783203" id="rel6" class="er relationshipLabel">includes</text><rect fill-opacity="85%" fill="white" height="14" width="50.796875" y="313" x="521.267578125" class="er relationshipLabelBox"></rect><text style="font-family: &quot;trebuchet ms&quot;, verdana, arial, sans-serif;; font-size: 12px" dominant-baseline="middle" text-anchor="middle" y="320" x="546.666015625" id="rel7" class="er relationshipLabel">contains</text><rect fill-opacity="85%" fill="white" height="14" width="61.5" y="513.210693359375" x="445.4377136230469" class="er relationshipLabelBox"></rect><text style="font-family: &quot;trebuchet ms&quot;, verdana, arial, sans-serif;; font-size: 12px" dominant-baseline="middle" text-anchor="middle" y="520.210693359375" x="476.1877136230469" id="rel8" class="er relationshipLabel">ordered in</text></svg>